<svg version="1.1" id="Layer_1" xmlns="http://www.w3.org/2000/svg" xmlns:xlink="http://www.w3.org/1999/xlink" x="0px" y="0px"
	 width="100%" viewBox="0 0 432 480" enable-background="new 0 0 432 480" xml:space="preserve">
<path fill="#000000" opacity="1.000000" stroke="none" 
	d="
M361.000000,481.000000 
	C268.979095,481.000000 176.958206,481.000000 84.349411,480.672913 
	C82.054192,476.727081 79.584084,473.651489 77.236847,470.432373 
	C73.926064,465.891754 68.877502,463.593353 64.966492,459.801453 
	C57.730743,452.786011 49.187916,446.952850 37.771889,449.902679 
	C29.845400,451.950897 22.082533,451.455017 14.492741,447.774963 
	C10.226415,445.706360 5.512350,444.561188 0.999999,443.000000 
	C1.000000,406.979095 1.000000,370.958221 1.282737,334.679932 
	C10.487988,339.742737 19.743586,339.274139 29.390207,335.468994 
	C30.562195,344.862030 35.924644,351.734619 40.593845,358.962250 
	C43.077820,362.807281 45.937927,363.545654 50.138664,359.900818 
	C26.834873,336.474091 30.108290,308.761566 36.950386,280.427948 
	C34.166866,281.638306 32.718250,285.135345 29.983709,286.953918 
	C27.730747,285.551605 27.265251,282.359741 24.631302,282.276581 
	C18.622051,282.086731 12.926121,279.750549 6.877550,279.928741 
	C4.359740,280.002930 2.342179,280.793579 1.000000,283.000000 
	C1.000000,263.312439 1.000000,243.624878 1.316184,223.573486 
	C4.037894,224.140396 5.830833,222.781784 7.581048,221.517593 
	C10.249360,219.590271 11.360075,216.488800 13.076823,213.855225 
	C19.235630,204.407379 21.861340,204.077484 29.403040,211.920547 
	C32.934715,215.593384 36.469639,215.326263 39.307743,211.179535 
	C39.933887,210.264679 39.970196,208.867081 41.546539,208.555527 
	C42.572094,209.182678 43.022537,210.303406 43.038303,211.434814 
	C43.215492,224.148621 47.210388,236.231598 49.073452,248.661362 
	C49.590576,252.111481 49.438267,255.741455 50.833427,258.950531 
	C52.805794,263.487274 53.131748,267.396851 47.771698,270.352875 
	C49.976845,270.352875 51.496262,270.122528 52.918137,270.397156 
	C56.785927,271.144257 57.887829,268.952515 57.521961,265.866608 
	C56.895626,260.583771 56.401505,255.190140 54.889099,250.130859 
	C52.876213,243.397415 50.825569,236.951019 50.205112,229.703644 
	C49.036839,216.057404 47.498051,202.555252 48.067318,188.763260 
	C48.643055,174.814682 49.898052,161.131485 53.485397,147.589813 
	C58.312279,129.369080 61.941372,110.850334 72.596939,94.660118 
	C78.722603,85.352684 86.072502,77.162979 93.229713,68.742157 
	C96.026268,65.451874 100.742935,63.790661 102.417938,60.197838 
	C104.066742,56.661209 106.270668,54.553394 109.312263,52.848476 
	C115.546135,49.354176 121.798431,45.888313 128.116455,42.549477 
	C142.219818,35.096375 156.724365,28.366777 172.367096,25.100958 
	C185.628693,22.332260 198.995102,19.532736 212.580124,18.856989 
	C220.008453,18.487490 227.821167,16.999811 234.872406,19.745441 
	C240.274536,21.848936 245.533295,21.910782 250.871902,21.599861 
	C263.750092,20.849838 275.571869,25.539843 287.799713,28.136215 
	C291.412964,28.903423 293.912628,31.925262 297.646027,32.810165 
	C306.370209,34.877995 314.119995,39.761681 320.212982,45.756660 
	C325.506134,50.964695 331.237762,55.724140 336.552917,60.899040 
	C346.227112,70.317902 355.014709,80.264885 361.565674,92.092651 
	C363.175507,94.999168 363.860443,98.839409 368.673981,97.857475 
	C369.164368,97.757446 370.264923,98.710312 370.452789,99.357368 
	C373.188232,108.779060 378.465454,117.396889 379.251556,127.444366 
	C379.484070,130.416275 379.808197,133.475647 380.733276,136.283096 
	C386.039276,152.386551 387.888031,168.983017 388.349457,185.823044 
	C388.482483,190.677277 387.665222,195.419174 387.318756,200.213196 
	C386.884216,206.225632 389.433594,208.381973 395.430542,207.891937 
	C399.642639,207.547729 403.601990,206.294067 407.334686,204.358963 
	C411.636444,202.128845 416.202972,201.418854 420.923157,202.157532 
	C425.494354,202.872864 428.971222,206.050247 433.000000,208.000000 
	C433.000000,272.687561 433.000000,337.375122 432.673767,402.636566 
	C428.725525,404.865173 426.470581,408.642792 422.326569,409.532288 
	C417.291962,410.613007 412.340515,412.214508 407.259888,412.912201 
	C401.417572,413.714478 397.938660,416.702271 396.149994,422.153900 
	C395.110870,425.320892 393.665314,428.341431 391.481232,430.906250 
	C386.515747,436.737274 382.429504,443.179901 378.068024,449.449432 
	C372.377014,457.630188 367.084320,466.031006 361.859772,474.497681 
	C360.538239,476.639282 359.774414,478.628998 361.000000,481.000000 
M80.297699,133.407990 
	C79.104317,139.067688 78.851433,145.155807 76.511200,150.293060 
	C72.334396,159.461945 69.617599,168.856750 67.890404,178.722473 
	C66.583061,186.190018 65.361313,193.485703 68.587944,200.730438 
	C69.224968,202.160751 69.227859,203.593597 68.973801,205.123032 
	C68.694405,206.804993 68.882996,208.627548 70.107895,209.827286 
	C74.436348,214.066925 78.244568,219.345261 85.360176,218.826736 
	C89.223648,218.545212 90.700851,221.622284 91.811440,224.092636 
	C92.868576,226.444092 93.275604,229.363266 90.627289,231.864838 
	C87.773987,234.560059 86.876442,238.473877 86.593033,242.296448 
	C86.443413,244.314575 86.054955,245.413681 84.126160,246.564240 
	C74.748123,252.158386 72.937569,260.458252 78.755318,269.811859 
	C79.528564,271.055084 79.477470,272.345093 79.218185,273.668884 
	C78.706703,276.280243 77.830986,278.867950 77.702095,281.494690 
	C77.533844,284.923431 74.845383,288.477478 76.854782,291.598969 
	C78.610298,294.326080 78.687790,296.892426 78.306259,299.651642 
	C77.483154,305.604156 77.147789,311.571014 77.233337,317.567902 
	C77.261330,319.530182 76.916611,321.845184 74.903564,322.019318 
	C69.795151,322.461273 67.251678,325.185791 65.871719,329.830872 
	C65.426262,331.330353 63.921791,332.788818 61.977154,332.227661 
	C60.008144,331.659454 58.944359,330.055756 59.339050,327.982666 
	C59.800812,325.557343 60.107174,322.925171 61.304798,320.860657 
	C62.919823,318.076569 62.476746,315.924591 60.908337,313.483429 
	C57.854233,308.729767 54.867832,303.930511 51.955261,299.088867 
	C50.592915,296.824219 49.081043,294.416046 52.065575,291.888855 
	C56.976116,293.196289 59.144855,298.005707 63.118252,300.845673 
	C61.865425,295.084412 60.717285,289.549622 58.184841,284.409393 
	C57.264843,282.542023 56.299175,280.725586 53.977009,280.651611 
	C51.569813,280.574921 50.687160,282.550201 49.719944,284.326813 
	C45.505585,292.067932 45.071545,300.515594 45.230484,309.027588 
	C45.307789,313.167633 45.999687,317.295288 46.097897,321.436035 
	C46.279953,329.111725 48.329544,336.170288 53.280910,342.036987 
	C55.223915,344.339203 56.743198,346.908051 58.635845,349.140930 
	C61.807800,352.883026 65.622131,356.083496 69.196182,359.480316 
	C70.400681,360.625122 71.874046,360.962738 73.311005,360.041168 
	C74.860939,359.047119 74.533279,357.431793 74.214066,355.959686 
	C73.758453,353.858490 72.945518,351.805420 72.731567,349.686707 
	C72.102081,343.453186 71.794456,337.186768 71.138885,330.956543 
	C70.924675,328.920837 69.071716,326.461212 72.596207,325.885834 
	C75.309196,325.442902 79.130905,324.900848 79.706093,328.546570 
	C80.801903,335.492249 83.523087,341.923279 85.131042,348.692719 
	C87.233429,357.543640 87.553154,367.209778 95.198814,373.898438 
	C95.947281,374.553192 96.573990,375.508911 95.927643,376.559753 
	C93.246803,380.918488 95.843376,383.934204 98.416565,387.065643 
	C100.931564,390.126282 103.455421,393.204346 105.674728,396.478577 
	C112.122505,405.991333 120.753319,412.682556 131.602325,416.248444 
	C136.711517,417.927765 141.488785,420.154907 145.966766,422.974060 
	C153.238663,427.552185 161.140289,430.145813 169.530319,431.634735 
	C182.220062,433.886719 194.844269,436.529388 207.705338,437.697754 
	C217.877350,438.621765 227.460037,443.049438 237.859314,442.707275 
	C241.334030,442.592957 244.784439,442.933411 248.272690,443.393341 
	C252.530853,443.954773 257.365845,443.308441 260.670471,440.657715 
	C268.141907,434.664612 277.471497,432.923615 285.623901,428.577179 
	C299.079376,421.403381 313.548187,415.924194 325.169678,405.701233 
	C328.886810,402.431396 332.330566,399.948273 337.512360,400.757965 
	C339.741699,401.106262 341.630402,399.773682 343.507996,398.638245 
	C350.813629,394.220093 354.839233,387.320496 358.253326,379.820923 
	C362.629669,370.207611 368.375580,361.119080 367.746796,349.865051 
	C367.459778,344.727234 368.045410,339.885345 369.692139,334.600922 
	C372.543732,325.449707 372.668091,315.416901 373.632935,305.723694 
	C374.075684,301.275330 373.729279,296.790222 375.148438,292.398987 
	C375.778564,290.449219 376.380096,288.001221 375.031342,286.071686 
	C370.584412,279.709839 371.393799,271.676605 368.113342,264.923981 
	C366.885834,262.397247 367.820404,260.183929 370.195740,257.961517 
	C373.014343,255.324387 376.501038,252.005829 374.062378,247.370224 
	C371.925964,243.309158 369.931061,239.040146 365.071625,237.114838 
	C360.526215,235.313950 357.912292,232.093765 358.667603,226.690689 
	C359.177460,223.043274 358.296082,219.471649 357.245880,215.891998 
	C355.964966,211.526031 356.982178,207.828171 361.469086,205.388107 
	C368.328918,201.657623 369.871002,192.995392 364.383728,186.981339 
	C362.169922,184.555054 361.497192,182.274185 361.679413,179.416412 
	C362.481781,166.830032 360.613251,154.671829 356.194366,142.862396 
	C355.394928,140.725906 354.934875,138.501190 355.529480,136.040985 
	C356.917847,130.296860 355.789612,128.279175 349.891052,127.616676 
	C345.132507,127.082214 344.327301,124.578049 345.093536,120.821831 
	C346.215179,115.323547 344.936523,110.260384 342.636841,105.395554 
	C338.655334,96.972946 331.721344,91.097267 324.206299,86.234428 
	C316.837891,81.466484 316.557098,82.002708 310.191101,88.522354 
	C308.695343,90.054199 307.000610,91.594727 305.095886,92.489395 
	C296.411469,96.568596 289.319733,102.942894 281.596161,108.404121 
	C273.345856,114.237793 264.690704,118.950768 254.104736,118.239662 
	C253.027283,118.167282 252.260941,118.872116 251.363052,119.122124 
	C245.016144,120.889389 237.796967,119.818741 232.507828,125.016800 
	C232.430847,125.092453 232.185654,125.007324 232.021271,124.982155 
	C228.165588,124.392006 224.427109,125.406235 220.637115,125.776207 
	C206.706146,127.136116 192.860382,125.938492 179.036133,124.254593 
	C171.931152,117.945793 162.424881,119.181831 154.236954,116.316650 
	C145.495010,113.257591 136.832001,109.922211 128.327515,106.259407 
	C124.764755,104.724968 120.100845,104.762192 117.892700,101.009895 
	C115.645042,97.190468 113.123405,98.193169 110.354561,99.775528 
	C107.324699,101.507050 104.563789,103.830223 101.375702,105.142517 
	C88.951180,110.256752 84.782768,121.513107 80.297699,133.407990 
M273.409393,449.452057 
	C272.590881,447.321350 271.397400,445.407776 268.871338,445.431854 
	C265.397125,445.464935 261.928925,445.152100 258.434723,445.818542 
	C252.241852,446.999695 246.258850,449.272400 239.873993,449.446808 
	C237.227142,449.519073 234.564896,449.091400 231.964767,450.076141 
	C227.394852,451.806854 222.663086,451.786987 217.821106,451.643433 
	C208.362671,451.363037 199.125214,449.338440 189.739166,448.564941 
	C188.031662,448.424255 186.888794,449.068176 186.071747,450.547821 
	C184.040314,454.226715 186.990601,463.240784 190.989777,464.207520 
	C197.073669,465.678223 203.291519,467.388550 209.478363,467.495117 
	C230.447586,467.856354 251.428238,467.567932 272.404358,467.488525 
	C273.850647,467.483032 275.488525,467.580261 276.412079,465.321350 
	C273.560089,460.916199 273.415558,455.616180 273.409393,449.452057 
M381.283905,332.930054 
	C383.363770,337.310791 380.037445,340.540192 378.687805,344.088715 
	C377.564728,347.041595 376.037659,349.671478 379.363525,352.010986 
	C382.746704,354.390747 385.049530,352.458496 387.582245,350.122314 
	C393.594604,344.576477 395.669403,336.881042 399.007812,329.904785 
	C403.387360,320.752777 407.313934,311.408020 404.359436,300.843842 
	C404.141754,300.065613 404.113251,299.169586 404.245667,298.369446 
	C404.884460,294.509399 404.054535,290.942993 403.132233,287.154297 
	C402.107086,282.943146 399.337921,278.993652 399.539948,274.885620 
	C399.792450,269.752991 398.050537,265.437653 396.494965,260.942474 
	C395.126740,256.988617 392.548767,256.291656 389.165314,258.628387 
	C386.830353,260.240997 385.379242,272.538208 387.335602,274.523712 
	C387.779114,274.973816 388.466003,275.465485 389.039551,275.463898 
	C397.594818,275.440399 399.315979,281.890442 401.344025,288.188141 
	C402.196747,290.836090 402.094574,293.101898 399.932861,294.995483 
	C397.892700,296.782623 395.202179,296.752594 393.408630,295.437744 
	C389.562683,292.618378 386.789551,294.876953 384.842010,297.290253 
	C382.601288,300.066895 384.002411,303.216858 386.308350,305.758026 
	C387.984741,307.605377 389.950439,309.415894 390.266907,311.970520 
	C390.511536,313.945465 392.196167,316.457947 389.852417,317.975159 
	C387.062164,319.781342 385.841461,316.936096 384.246582,315.411896 
	C384.087372,315.259766 383.624359,315.425476 382.961670,315.462921 
	C382.923706,321.038177 380.870819,326.406830 381.283905,332.930054 
M126.081566,436.346008 
	C133.188644,438.145386 138.875504,443.452271 146.340073,444.470093 
	C148.159485,444.718170 149.386246,446.395325 150.274841,448.075104 
	C151.896667,451.140869 151.191086,454.196655 150.342636,457.294373 
	C149.395752,460.751495 149.056564,464.149384 152.268784,467.098206 
	C150.444870,458.006134 157.956024,454.962616 162.675659,450.174011 
	C163.373291,449.466217 164.234497,448.922333 164.962097,448.240784 
	C166.054520,447.217438 167.265472,446.214844 166.713379,444.425751 
	C166.162811,442.641541 164.642532,442.638489 163.152557,442.277252 
	C158.825104,441.228088 154.274078,440.549255 150.306778,438.675110 
	C140.381119,433.986206 130.630112,428.898743 120.999268,423.623871 
	C113.438828,419.482971 105.624161,415.440094 100.580566,408.037415 
	C95.614578,400.748627 90.129578,393.885925 84.639969,387.001770 
	C82.725639,384.601166 82.209114,380.759430 79.203430,379.516388 
	C73.066124,376.978180 67.847191,372.788300 61.135208,369.875671 
	C63.684906,373.504791 66.776642,375.421875 69.878448,377.195404 
	C72.806580,378.869598 75.428566,381.241760 75.759026,384.275391 
	C76.713493,393.037506 81.865280,399.054321 87.572998,404.957367 
	C88.929596,406.360352 89.974594,408.192230 90.751556,410.003265 
	C92.768166,414.703827 96.562370,417.821045 100.638611,420.258057 
	C106.087769,423.515839 111.257736,427.106506 116.302834,430.914490 
	C119.107681,433.031555 121.992676,434.979523 126.081566,436.346008 
M292.880157,441.089630 
	C293.076508,439.705536 294.656952,438.547119 293.596069,436.945770 
	C291.305908,437.256592 286.615601,439.086426 285.553070,440.114166 
	C283.705231,441.901520 283.896210,443.640442 285.901947,445.095306 
	C289.502777,447.707123 292.056244,446.452057 292.880157,441.089630 
M418.799774,306.573730 
	C418.537994,304.752380 417.168884,303.749634 416.758606,305.945892 
	C415.980560,310.110657 414.024750,314.120972 414.190369,318.451172 
	C421.315613,316.758118 419.696136,311.861298 418.799774,306.573730 
M304.628265,431.148529 
	C303.299591,431.893738 301.306366,431.483154 300.591095,433.389221 
	C305.466675,435.793335 309.550598,434.096924 311.410461,428.463165 
	C309.133514,429.353180 307.200012,430.108948 304.628265,431.148529 
M287.448853,455.293671 
	C284.027954,456.071167 285.645050,458.187164 285.889557,460.016449 
	C287.981689,460.517517 289.534668,460.010101 290.097717,458.276886 
	C290.603943,456.718475 289.007812,456.159424 287.448853,455.293671 
M174.149185,461.233673 
	C176.556732,459.745178 175.363937,458.168457 173.961624,457.068970 
	C172.952103,456.277466 171.709061,457.081879 171.189575,458.180878 
	C170.040558,460.611511 172.059540,460.765717 174.149185,461.233673 
M295.252777,466.582458 
	C296.618073,466.777527 298.169922,466.864441 297.849823,464.914246 
	C297.596832,463.373108 296.119690,463.020416 294.772919,463.603943 
	C292.970306,464.384857 293.267059,465.417664 295.252777,466.582458 
z"/>
<path fill="#000000" opacity="1.000000" stroke="none" 
	d="
M14.897911,126.082108 
	C17.369444,121.704903 19.524794,117.571136 22.079378,113.700874 
	C23.734064,111.193977 26.044689,108.903351 29.448263,109.508377 
	C32.736782,110.092949 32.794415,113.200836 33.497772,115.726402 
	C34.119469,117.958748 34.283241,120.640930 35.657001,122.279655 
	C39.420383,126.768929 38.918785,130.785187 35.923382,135.363144 
	C33.607849,138.902039 32.878021,143.115143 33.112022,147.328552 
	C33.543499,155.097717 29.329126,160.084915 23.474897,164.194794 
	C20.470957,166.303680 17.883663,165.821442 15.714910,162.913055 
	C12.632820,158.779892 10.948159,154.114471 11.146942,148.973663 
	C11.442393,141.332886 12.129047,133.721298 14.897911,126.082108 
z"/>
<path fill="#000000" opacity="1.000000" stroke="none" 
	d="
M185.565353,287.302460 
	C182.541397,289.566345 181.388672,293.879944 177.482056,294.014038 
	C170.601746,294.250183 163.506836,295.797119 157.008316,291.946167 
	C155.550186,291.082062 153.878204,290.147095 153.919937,288.332825 
	C153.970612,286.130157 156.082870,286.157684 157.671539,285.849121 
	C160.190338,285.359924 162.273605,284.159485 162.212219,281.412018 
	C162.146805,278.483276 159.426147,278.577911 157.367828,278.135193 
	C149.900635,276.528992 149.081070,275.708679 148.590286,267.704803 
	C148.236267,261.931549 148.163406,256.137817 148.102921,250.351761 
	C148.085159,248.653534 148.472458,246.803177 146.593185,246.017075 
	C144.771805,245.255203 143.022018,246.412125 142.420441,247.890152 
	C140.405075,252.841690 135.626389,256.585571 136.039642,262.621643 
	C136.126221,263.886444 135.907959,265.582153 135.125305,266.424011 
	C132.074738,269.705383 132.084915,273.574921 132.304794,277.601685 
	C132.383133,279.036285 132.741058,280.807922 130.602417,281.162109 
	C128.407501,281.525696 126.824532,280.339508 126.612022,278.323730 
	C125.709938,269.766876 120.977829,261.373749 125.407837,252.546265 
	C125.914185,251.537277 126.407166,250.160568 126.126022,249.177551 
	C124.607292,243.867416 127.456001,240.062164 130.643066,236.717880 
	C134.579697,232.587051 139.389999,229.578308 145.234467,228.690308 
	C150.321594,227.917389 155.388840,226.949203 160.501343,226.418991 
	C182.140503,224.174713 195.839615,233.259903 204.292999,253.629166 
	C205.720245,257.068329 202.611389,260.048370 198.585907,260.815247 
	C195.719574,261.361267 192.543823,257.889130 190.265442,261.262695 
	C188.521271,263.845276 189.514999,267.111908 189.292526,270.069580 
	C188.855713,275.876312 188.546127,281.693573 185.565353,287.302460 
z"/>
<path fill="#000000" opacity="1.000000" stroke="none" 
	d="
M282.683594,227.249649 
	C290.678040,224.919769 298.329498,222.252167 306.407928,223.725555 
	C314.308929,225.166565 322.639130,224.822906 329.957977,228.866074 
	C334.749756,231.513214 338.243103,235.476608 340.818665,240.262436 
	C341.279358,241.118454 342.108795,242.386124 341.807068,242.944870 
	C339.579620,247.069809 342.374207,250.296356 343.546265,253.778183 
	C343.925690,254.905289 344.366974,255.974777 344.160400,257.147339 
	C343.099091,263.171570 342.049347,269.198853 340.877441,275.201996 
	C340.518341,277.041565 339.775879,278.869110 337.298248,278.461151 
	C334.731689,278.038605 335.568054,275.987183 335.653748,274.480072 
	C335.863983,270.783630 335.963776,267.319336 332.752747,264.464233 
	C331.746552,263.569580 331.853638,261.371124 331.545624,259.751465 
	C329.695831,250.023743 324.805603,242.551178 316.181000,239.515930 
	C315.451233,239.259094 314.583313,239.394730 313.481689,239.330704 
	C312.890747,244.844147 316.286011,249.243484 316.716614,254.217087 
	C317.576294,264.147308 317.877991,273.975098 314.814972,283.761688 
	C313.258026,288.736267 309.663635,291.301178 305.632660,291.741089 
	C298.771973,292.489929 291.630554,292.120483 286.404083,286.159637 
	C283.343994,282.669525 283.901581,280.525452 288.351501,279.114685 
	C290.553467,278.416534 293.479645,277.915680 292.977356,274.921509 
	C292.488617,272.008240 289.464172,271.966858 287.236664,272.325348 
	C281.157654,273.303772 278.805756,270.476044 278.544189,264.821167 
	C278.300293,259.547119 276.374542,257.040955 270.188904,258.044891 
	C264.123657,259.029236 261.815918,254.564209 264.375824,248.749008 
	C268.289520,239.858337 274.261963,232.777374 282.683594,227.249649 
z"/>
<path fill="#000000" opacity="1.000000" stroke="none" 
	d="
M147.766388,181.517181 
	C154.709381,178.402679 161.834198,176.862411 168.825424,176.940369 
	C179.558151,177.060074 190.685074,177.444458 198.350708,187.112289 
	C201.499588,191.083603 201.414993,193.412384 197.276505,197.131424 
	C195.253021,198.949814 193.613663,200.560150 192.997162,203.473709 
	C192.329071,206.631210 189.890030,208.199509 186.513763,206.619095 
	C173.183334,200.379120 159.071548,203.602310 145.347824,203.719833 
	C137.056198,203.790848 130.125992,209.755157 122.636322,213.189240 
	C120.441040,214.195816 118.069580,216.642944 115.932556,214.258041 
	C113.707245,211.774643 112.778809,208.409348 114.521477,204.988785 
	C117.374039,199.389664 122.838593,196.507156 127.521919,192.935440 
	C133.595078,188.303787 140.402054,184.764145 147.766388,181.517181 
z"/>
<path fill="#000000" opacity="1.000000" stroke="none" 
	d="
M323.490356,198.477600 
	C308.577728,193.110184 293.991455,192.678207 279.232849,197.603455 
	C272.879272,199.723785 264.870300,196.722321 262.481049,191.876770 
	C261.304932,189.491592 261.009094,187.015182 263.657135,185.850235 
	C270.980560,182.628540 276.892151,177.103195 284.293274,173.912292 
	C289.831238,171.524628 295.072510,170.690582 301.092712,170.901215 
	C309.088776,171.180969 316.101807,172.892303 321.968811,178.428375 
	C326.885834,183.068039 332.917267,185.797226 338.944366,188.590958 
	C342.754150,190.356903 345.797577,193.168396 348.480103,196.400894 
	C349.998199,198.230209 350.482025,200.329590 349.967865,202.470993 
	C349.296387,205.267700 347.505646,206.902863 345.139160,204.106750 
	C342.484924,200.970612 340.082855,200.352203 336.637756,202.854523 
	C335.170349,203.920349 333.157318,203.391235 331.421112,202.424545 
	C328.954529,201.051178 326.385559,199.861679 323.490356,198.477600 
z"/>
<path fill="#000000" opacity="1.000000" stroke="none" 
	d="
M95.999535,121.888580 
	C92.689735,121.942612 92.698586,121.815445 94.226929,119.109894 
	C101.047523,107.035728 117.173943,104.435204 127.370453,108.718712 
	C130.054031,109.846069 133.716721,109.765602 135.133865,113.677254 
	C131.062088,115.220253 127.770668,112.902802 124.602715,111.758469 
	C119.469849,109.904343 115.758255,109.711876 111.196686,113.979187 
	C107.264931,117.657310 101.333244,119.197609 95.999535,121.888580 
z"/>
<path fill="#000000" opacity="1.000000" stroke="none" 
	d="
M211.600983,408.483154 
	C216.506775,406.078552 221.096741,405.715973 225.843582,407.898743 
	C227.672211,408.739594 230.029266,409.176514 229.681625,411.711884 
	C229.368454,413.995850 227.540863,415.584229 225.280655,415.982300 
	C221.693466,416.614105 218.043243,416.889557 214.418655,417.306915 
	C211.832382,417.604767 209.701752,416.735474 208.663879,414.322906 
	C207.517441,411.657928 209.014542,409.905518 211.600983,408.483154 
z"/>
<path fill="#000000" opacity="1.000000" stroke="none" 
	d="
M264.733093,411.224487 
	C265.677765,416.553558 262.897858,419.896271 258.088898,419.698029 
	C255.177658,419.578033 252.595047,418.202789 250.209839,416.816223 
	C247.740524,415.380676 248.181931,412.462128 249.346817,410.577484 
	C250.922653,408.027924 253.452621,405.973907 256.868469,407.270752 
	C259.494934,408.267914 261.953552,409.707245 264.733093,411.224487 
z"/>
<path fill="#000000" opacity="1.000000" stroke="none" 
	d="
M235.320129,340.526306 
	C233.339127,336.828979 231.748795,333.348419 232.660034,329.399323 
	C233.452072,325.966827 235.749374,325.137207 238.493362,327.103943 
	C242.319839,329.846558 242.873672,337.719025 239.443542,340.816895 
	C238.167007,341.969757 236.848846,342.195984 235.320129,340.526306 
z"/>
<path fill="#000000" opacity="1.000000" stroke="none" 
	d="
M126.567474,303.223328 
	C128.538330,304.673126 129.402420,306.646515 132.303833,306.803162 
	C134.394699,306.916016 135.870178,310.290710 133.410263,311.642273 
	C130.463608,313.261292 126.683601,314.214478 123.340164,314.036255 
	C119.513718,313.832245 120.477509,310.231201 121.050285,307.754486 
	C121.647041,305.174164 123.376495,303.413300 126.567474,303.223328 
z"/>
<path fill="#000000" opacity="1.000000" stroke="none" 
	d="
M315.959839,302.670898 
	C315.892151,301.812195 315.785217,301.255707 315.981171,300.843140 
	C317.269104,298.131531 319.159943,296.191132 322.452667,296.655609 
	C324.327515,296.920044 325.244934,298.195923 325.312286,300.111511 
	C325.420990,303.204346 323.394012,305.160217 321.124023,306.308899 
	C318.246368,307.765076 317.347656,304.801666 315.959839,302.670898 
z"/>
<path fill="#000000" opacity="1.000000" stroke="none" 
	d="
M328.675201,303.392029 
	C329.347778,302.276337 329.814453,301.352844 330.532501,300.710205 
	C333.251404,298.276886 338.190826,298.092865 339.323700,300.536194 
	C340.965820,304.077881 337.133972,304.528320 335.519318,305.790955 
	C332.722382,307.978149 329.693329,308.393677 328.675201,303.392029 
z"/>
<path fill="#000000" opacity="1.000000" stroke="none" 
	d="
M147.205566,288.189148 
	C149.942978,291.009369 148.170349,292.477051 145.922989,293.665436 
	C144.837036,294.239716 143.375153,294.263000 143.095322,292.808136 
	C142.536926,289.905060 143.869644,288.173981 147.205566,288.189148 
z"/>
</svg>